<mxfile host="app.diagrams.net" agent="Mozilla/5.0 (Macintosh; Intel Mac OS X 10_15_7) AppleWebKit/537.36 (KHTML, like Gecko) Chrome/131.0.0.0 Safari/537.36" version="26.0.4">
  <diagram name="Page-1" id="MKCQ5C6y8l7_K9056Z5g">
    <mxGraphModel dx="24840" dy="33700" grid="1" gridSize="10" guides="1" tooltips="1" connect="1" arrows="1" fold="1" page="1" pageScale="1" pageWidth="4000" pageHeight="3000" math="0" shadow="0">
      <root>
        <mxCell id="0" />
        <mxCell id="1" parent="0" />
        <mxCell id="IJF4PRLWW7D9-W-VvZhj-1" value="" style="rounded=0;whiteSpace=wrap;html=1;sketch=1;curveFitting=1;jiggle=2;movable=1;resizable=1;rotatable=1;deletable=1;editable=1;locked=0;connectable=1;" vertex="1" parent="1">
          <mxGeometry x="595" y="-15630" width="2890" height="6660" as="geometry" />
        </mxCell>
        <mxCell id="IJF4PRLWW7D9-W-VvZhj-2" value="&lt;font style=&quot;font-size: 45px;&quot;&gt;&lt;b style=&quot;&quot;&gt;Dockerfiles&lt;/b&gt;&lt;/font&gt;" style="rounded=0;whiteSpace=wrap;html=1;sketch=1;curveFitting=1;jiggle=2;fillColor=#fff2cc;strokeColor=#d6b656;" vertex="1" parent="1">
          <mxGeometry x="1690" y="-15450" width="730" height="140" as="geometry" />
        </mxCell>
        <mxCell id="IJF4PRLWW7D9-W-VvZhj-3" value="&lt;font style=&quot;font-size: 40px;&quot;&gt;&lt;b style=&quot;&quot;&gt;Frontend&lt;/b&gt;&lt;/font&gt;" style="rounded=1;whiteSpace=wrap;html=1;sketch=1;curveFitting=1;jiggle=2;" vertex="1" parent="1">
          <mxGeometry x="753.75" y="-15210" width="2562.5" height="140" as="geometry" />
        </mxCell>
        <mxCell id="IJF4PRLWW7D9-W-VvZhj-4" value="&lt;font style=&quot;font-size: 40px;&quot;&gt;&lt;b&gt;Backend&lt;/b&gt;&lt;/font&gt;" style="rounded=1;whiteSpace=wrap;html=1;sketch=1;curveFitting=1;jiggle=2;" vertex="1" parent="1">
          <mxGeometry x="744.37" y="-11810" width="2621.25" height="160" as="geometry" />
        </mxCell>
        <mxCell id="IJF4PRLWW7D9-W-VvZhj-5" value="&lt;font style=&quot;font-size: 40px;&quot;&gt;&lt;b style=&quot;&quot;&gt;Stage 1: Build&lt;/b&gt;&lt;/font&gt;" style="shape=hexagon;perimeter=hexagonPerimeter2;whiteSpace=wrap;html=1;fixedSize=1;sketch=1;curveFitting=1;jiggle=2;fillColor=#d5e8d4;strokeColor=#82b366;" vertex="1" parent="1">
          <mxGeometry x="1420" y="-14950" width="1142.5" height="140" as="geometry" />
        </mxCell>
        <mxCell id="IJF4PRLWW7D9-W-VvZhj-6" value="&lt;font style=&quot;font-size: 40px;&quot;&gt;&lt;b&gt;Stage 2: Serve&lt;/b&gt;&lt;/font&gt;" style="shape=hexagon;perimeter=hexagonPerimeter2;whiteSpace=wrap;html=1;fixedSize=1;sketch=1;curveFitting=1;jiggle=2;fillColor=#d5e8d4;strokeColor=#82b366;" vertex="1" parent="1">
          <mxGeometry x="1420" y="-13300" width="1190" height="140" as="geometry" />
        </mxCell>
        <mxCell id="IJF4PRLWW7D9-W-VvZhj-7" value="&lt;font style=&quot;font-size: 30px;&quot;&gt;0.&amp;nbsp;&lt;/font&gt;&lt;span style=&quot;font-size: 30px;&quot;&gt;Use the &lt;font color=&quot;#394700&quot;&gt;Node.js&lt;/font&gt; image&amp;nbsp;&lt;/span&gt;&lt;div&gt;&lt;span style=&quot;font-size: 30px;&quot;&gt;&lt;font style=&quot;line-height: 240%;&quot; color=&quot;#331a00&quot;&gt;node:20.11.1-bullseye-slim&lt;/font&gt;&lt;/span&gt;&lt;/div&gt;" style="shape=process;whiteSpace=wrap;html=1;backgroundOutline=1;sketch=1;curveFitting=1;jiggle=2;" vertex="1" parent="1">
          <mxGeometry x="745" y="-14640" width="1200" height="180" as="geometry" />
        </mxCell>
        <mxCell id="IJF4PRLWW7D9-W-VvZhj-8" value="&lt;font style=&quot;font-size: 30px;&quot;&gt;6.&amp;nbsp;&lt;/font&gt;&lt;span style=&quot;background-color: initial; font-size: 30px;&quot;&gt;Build the app&amp;nbsp;&lt;/span&gt;&lt;div&gt;&lt;font style=&quot;line-height: 240%;&quot; color=&quot;#331a00&quot;&gt;&lt;span style=&quot;background-color: initial; font-size: 30px; line-height: 240%;&quot;&gt;pnpm run build --prod =&amp;gt;&amp;nbsp;&lt;/span&gt;&lt;span style=&quot;background-color: initial; font-size: 30px; line-height: 240%;&quot;&gt;nx build eDB --prod&lt;/span&gt;&lt;/font&gt;&lt;/div&gt;" style="shape=process;whiteSpace=wrap;html=1;backgroundOutline=1;sketch=1;curveFitting=1;jiggle=2;" vertex="1" parent="1">
          <mxGeometry x="2096.25" y="-14330" width="1220" height="180" as="geometry" />
        </mxCell>
        <mxCell id="IJF4PRLWW7D9-W-VvZhj-9" style="edgeStyle=orthogonalEdgeStyle;rounded=0;orthogonalLoop=1;jettySize=auto;html=1;exitX=0.5;exitY=0;exitDx=0;exitDy=0;entryX=0.5;entryY=1;entryDx=0;entryDy=0;strokeWidth=5;sketch=1;curveFitting=1;jiggle=2;" edge="1" parent="1" source="IJF4PRLWW7D9-W-VvZhj-10" target="IJF4PRLWW7D9-W-VvZhj-23">
          <mxGeometry relative="1" as="geometry" />
        </mxCell>
        <mxCell id="IJF4PRLWW7D9-W-VvZhj-10" value="&lt;font style=&quot;font-size: 30px;&quot;&gt;4.&amp;nbsp;&lt;/font&gt;&lt;span style=&quot;font-size: 30px;&quot;&gt;Install &lt;font color=&quot;#394700&quot;&gt;dependencies&lt;/font&gt;&amp;nbsp;&lt;/span&gt;&lt;div&gt;&lt;span style=&quot;background-color: initial; font-size: 30px;&quot;&gt;&lt;font style=&quot;line-height: 240%;&quot; color=&quot;#331a00&quot;&gt;&lt;b&gt;RUN&lt;/b&gt; pnpm install --frozen-lockfile&lt;/font&gt;&lt;/span&gt;&lt;/div&gt;" style="shape=process;whiteSpace=wrap;html=1;backgroundOutline=1;sketch=1;curveFitting=1;jiggle=2;" vertex="1" parent="1">
          <mxGeometry x="2098.75" y="-13690" width="1215" height="180" as="geometry" />
        </mxCell>
        <mxCell id="IJF4PRLWW7D9-W-VvZhj-11" value="&lt;font style=&quot;font-size: 30px;&quot;&gt;0.&amp;nbsp;Use a lightweight &lt;font color=&quot;#394700&quot;&gt;NGINX&lt;/font&gt; image&amp;nbsp;&lt;/font&gt;&lt;div&gt;&lt;font style=&quot;font-size: 30px;&quot;&gt;&lt;font style=&quot;line-height: 240%;&quot; color=&quot;#331a00&quot;&gt;nginx:alpine&lt;/font&gt;&lt;/font&gt;&lt;/div&gt;" style="shape=process;whiteSpace=wrap;html=1;backgroundOutline=1;sketch=1;curveFitting=1;jiggle=2;" vertex="1" parent="1">
          <mxGeometry x="748.75" y="-12970" width="1211.25" height="180" as="geometry" />
        </mxCell>
        <mxCell id="IJF4PRLWW7D9-W-VvZhj-12" style="edgeStyle=orthogonalEdgeStyle;rounded=0;orthogonalLoop=1;jettySize=auto;html=1;exitX=0.5;exitY=1;exitDx=0;exitDy=0;strokeWidth=5;sketch=1;curveFitting=1;jiggle=2;" edge="1" parent="1" source="IJF4PRLWW7D9-W-VvZhj-13">
          <mxGeometry relative="1" as="geometry">
            <mxPoint x="1350.7647058823532" y="-12320" as="targetPoint" />
          </mxGeometry>
        </mxCell>
        <mxCell id="IJF4PRLWW7D9-W-VvZhj-13" value="&lt;font style=&quot;&quot;&gt;&lt;span style=&quot;font-size: 30px;&quot;&gt;1. &lt;font color=&quot;#394700&quot;&gt;Copy built files&lt;/font&gt; from the builder stage to the &lt;font color=&quot;#394700&quot;&gt;NGINX web root&lt;/font&gt;&lt;/span&gt;&lt;/font&gt;&lt;div&gt;&lt;div&gt;&lt;span style=&quot;background-color: initial; font-size: 30px;&quot;&gt;&lt;font style=&quot;line-height: 240%;&quot; color=&quot;#331a00&quot;&gt;&lt;b&gt;COPY&lt;/b&gt; --from=builder /app/dist/apps/eDB/browser /etc/nginx/html&lt;/font&gt;&lt;/span&gt;&lt;/div&gt;&lt;/div&gt;" style="shape=process;whiteSpace=wrap;html=1;backgroundOutline=1;sketch=1;curveFitting=1;jiggle=2;" vertex="1" parent="1">
          <mxGeometry x="746.25" y="-12650" width="1210" height="180" as="geometry" />
        </mxCell>
        <mxCell id="IJF4PRLWW7D9-W-VvZhj-14" style="edgeStyle=orthogonalEdgeStyle;rounded=0;orthogonalLoop=1;jettySize=auto;html=1;exitX=1;exitY=0.5;exitDx=0;exitDy=0;entryX=0;entryY=0.5;entryDx=0;entryDy=0;strokeWidth=5;sketch=1;curveFitting=1;jiggle=2;" edge="1" parent="1" source="IJF4PRLWW7D9-W-VvZhj-15" target="IJF4PRLWW7D9-W-VvZhj-16">
          <mxGeometry relative="1" as="geometry" />
        </mxCell>
        <mxCell id="IJF4PRLWW7D9-W-VvZhj-15" value="&lt;font style=&quot;&quot;&gt;&lt;span style=&quot;font-size: 30px;&quot;&gt;2.&amp;nbsp;&lt;/span&gt;&lt;/font&gt;&lt;span style=&quot;font-size: 30px;&quot;&gt;Include a custom &lt;font color=&quot;#394700&quot;&gt;nginx.conf&lt;/font&gt;&lt;/span&gt;&lt;div&gt;&lt;span style=&quot;background-color: initial; font-size: 30px; line-height: 240%;&quot;&gt;&lt;font color=&quot;#331a00&quot;&gt;&lt;b&gt;COPY&lt;/b&gt; nginx.conf /etc/nginx/conf.d/default.conf&lt;/font&gt;&lt;/span&gt;&lt;/div&gt;" style="shape=process;whiteSpace=wrap;html=1;backgroundOutline=1;sketch=1;curveFitting=1;jiggle=2;" vertex="1" parent="1">
          <mxGeometry x="752.5" y="-12310" width="1205" height="180" as="geometry" />
        </mxCell>
        <mxCell id="IJF4PRLWW7D9-W-VvZhj-16" value="&lt;span style=&quot;font-size: 30px;&quot;&gt;3.Expose port 80&lt;/span&gt;&lt;div&gt;&lt;span style=&quot;background-color: initial; font-size: 30px;&quot;&gt;&lt;font style=&quot;line-height: 240%;&quot; color=&quot;#331a00&quot;&gt;&lt;b&gt;EXPOSE&lt;/b&gt; 80&lt;/font&gt;&lt;/span&gt;&lt;/div&gt;" style="shape=process;whiteSpace=wrap;html=1;backgroundOutline=1;sketch=1;curveFitting=1;jiggle=2;" vertex="1" parent="1">
          <mxGeometry x="2096.25" y="-12310" width="1215" height="180" as="geometry" />
        </mxCell>
        <mxCell id="IJF4PRLWW7D9-W-VvZhj-17" style="edgeStyle=orthogonalEdgeStyle;rounded=0;orthogonalLoop=1;jettySize=auto;html=1;exitX=0.5;exitY=1;exitDx=0;exitDy=0;entryX=0.5;entryY=0;entryDx=0;entryDy=0;strokeWidth=5;sketch=1;curveFitting=1;jiggle=2;" edge="1" parent="1" source="IJF4PRLWW7D9-W-VvZhj-18" target="IJF4PRLWW7D9-W-VvZhj-20">
          <mxGeometry relative="1" as="geometry" />
        </mxCell>
        <mxCell id="IJF4PRLWW7D9-W-VvZhj-18" value="&lt;font style=&quot;font-size: 30px;&quot;&gt;2.&amp;nbsp;&lt;/font&gt;&lt;span style=&quot;font-size: 30px;&quot;&gt;Install &lt;font color=&quot;#394700&quot;&gt;pnpm&lt;/font&gt; globally using npm&amp;nbsp;&lt;/span&gt;&lt;div&gt;&lt;span style=&quot;background-color: initial; font-size: 30px;&quot;&gt;&lt;font style=&quot;line-height: 240%;&quot; color=&quot;#331a00&quot;&gt;&lt;b&gt;RUN&lt;/b&gt; npm install -g pnpm&lt;/font&gt;&lt;/span&gt;&lt;/div&gt;" style="shape=process;whiteSpace=wrap;html=1;backgroundOutline=1;sketch=1;curveFitting=1;jiggle=2;" vertex="1" parent="1">
          <mxGeometry x="757.5" y="-14010" width="1200" height="180" as="geometry" />
        </mxCell>
        <mxCell id="IJF4PRLWW7D9-W-VvZhj-19" style="edgeStyle=orthogonalEdgeStyle;rounded=0;orthogonalLoop=1;jettySize=auto;html=1;exitX=1;exitY=0.5;exitDx=0;exitDy=0;entryX=0;entryY=0.5;entryDx=0;entryDy=0;strokeWidth=5;sketch=1;curveFitting=1;jiggle=2;" edge="1" parent="1" source="IJF4PRLWW7D9-W-VvZhj-20" target="IJF4PRLWW7D9-W-VvZhj-10">
          <mxGeometry relative="1" as="geometry" />
        </mxCell>
        <mxCell id="IJF4PRLWW7D9-W-VvZhj-20" value="&lt;font style=&quot;font-size: 30px;&quot;&gt;3.&amp;nbsp;&lt;/font&gt;&lt;span style=&quot;font-size: 30px;&quot;&gt;Copy &lt;font color=&quot;#394700&quot;&gt;package.json&lt;/font&gt; and &lt;font color=&quot;#394700&quot;&gt;pnpm-lock.yaml&lt;/font&gt; first for better caching&lt;/span&gt;&lt;div&gt;&lt;span style=&quot;background-color: initial; font-size: 30px;&quot;&gt;&lt;font style=&quot;line-height: 240%;&quot; color=&quot;#331a00&quot;&gt;&lt;b&gt;COPY&lt;/b&gt; package.json pnpm-lock.yaml ./&lt;/font&gt;&lt;/span&gt;&lt;/div&gt;" style="shape=process;whiteSpace=wrap;html=1;backgroundOutline=1;sketch=1;curveFitting=1;jiggle=2;" vertex="1" parent="1">
          <mxGeometry x="757.5" y="-13690" width="1200" height="180" as="geometry" />
        </mxCell>
        <mxCell id="IJF4PRLWW7D9-W-VvZhj-21" value="&lt;font style=&quot;font-size: 30px;&quot;&gt;1.&lt;/font&gt;&lt;span style=&quot;background-color: initial; font-size: 30px;&quot;&gt;&amp;nbsp;Set working directory&lt;/span&gt;&lt;span style=&quot;font-size: 30px;&quot;&gt;&amp;nbsp;&lt;/span&gt;&lt;div&gt;&lt;span style=&quot;background-color: initial; font-size: 30px;&quot;&gt;&lt;font style=&quot;line-height: 240%;&quot; color=&quot;#331a00&quot;&gt;&lt;b&gt;WORKDIR&lt;/b&gt; /app&lt;/font&gt;&lt;/span&gt;&lt;/div&gt;" style="shape=process;whiteSpace=wrap;html=1;backgroundOutline=1;sketch=1;curveFitting=1;jiggle=2;" vertex="1" parent="1">
          <mxGeometry x="753.75" y="-14330" width="1195" height="180" as="geometry" />
        </mxCell>
        <mxCell id="IJF4PRLWW7D9-W-VvZhj-22" style="edgeStyle=orthogonalEdgeStyle;rounded=0;orthogonalLoop=1;jettySize=auto;html=1;exitX=0.5;exitY=0;exitDx=0;exitDy=0;entryX=0.5;entryY=1;entryDx=0;entryDy=0;strokeWidth=5;sketch=1;curveFitting=1;jiggle=2;" edge="1" parent="1" source="IJF4PRLWW7D9-W-VvZhj-23" target="IJF4PRLWW7D9-W-VvZhj-8">
          <mxGeometry relative="1" as="geometry" />
        </mxCell>
        <mxCell id="IJF4PRLWW7D9-W-VvZhj-23" value="&lt;font style=&quot;font-size: 30px;&quot;&gt;5.&amp;nbsp;Copy the rest of the &lt;font color=&quot;#394700&quot;&gt;application code&lt;/font&gt;&lt;/font&gt;&lt;span style=&quot;background-color: initial; font-size: 30px;&quot;&gt;&amp;nbsp;&lt;/span&gt;&lt;div&gt;&lt;span style=&quot;background-color: initial;&quot;&gt;&lt;span style=&quot;font-size: 30px;&quot;&gt;&lt;font style=&quot;line-height: 240%;&quot; color=&quot;#331a00&quot;&gt;&lt;b&gt;COPY&lt;/b&gt; . .&lt;/font&gt;&lt;/span&gt;&lt;/span&gt;&lt;/div&gt;" style="shape=process;whiteSpace=wrap;html=1;backgroundOutline=1;sketch=1;curveFitting=1;jiggle=2;" vertex="1" parent="1">
          <mxGeometry x="2096.25" y="-14020" width="1220" height="190" as="geometry" />
        </mxCell>
        <mxCell id="IJF4PRLWW7D9-W-VvZhj-24" value="&lt;span style=&quot;font-size: 30px;&quot;&gt;4.Start Nginx server&lt;/span&gt;&lt;div&gt;&lt;span style=&quot;background-color: initial; font-size: 30px;&quot;&gt;&lt;font style=&quot;line-height: 240%;&quot; color=&quot;#331a00&quot;&gt;&lt;b&gt;CMD&lt;/b&gt; [&quot;nginx&quot;, &quot;-g&quot;, &quot;daemon off;&quot;]&lt;/font&gt;&lt;/span&gt;&lt;/div&gt;" style="shape=process;whiteSpace=wrap;html=1;backgroundOutline=1;sketch=1;curveFitting=1;jiggle=2;" vertex="1" parent="1">
          <mxGeometry x="2090" y="-12650" width="1215" height="180" as="geometry" />
        </mxCell>
        <mxCell id="IJF4PRLWW7D9-W-VvZhj-25" value="&lt;font style=&quot;font-size: 40px;&quot;&gt;&lt;b&gt;Stage 1: Build&lt;/b&gt;&lt;/font&gt;" style="shape=hexagon;perimeter=hexagonPerimeter2;whiteSpace=wrap;html=1;fixedSize=1;sketch=1;curveFitting=1;jiggle=2;fillColor=#d5e8d4;strokeColor=#82b366;" vertex="1" parent="1">
          <mxGeometry x="1450" y="-11520" width="1190" height="150" as="geometry" />
        </mxCell>
        <mxCell id="IJF4PRLWW7D9-W-VvZhj-26" style="edgeStyle=orthogonalEdgeStyle;rounded=0;orthogonalLoop=1;jettySize=auto;html=1;exitX=0.5;exitY=1;exitDx=0;exitDy=0;strokeWidth=5;sketch=1;curveFitting=1;jiggle=2;" edge="1" parent="1" source="IJF4PRLWW7D9-W-VvZhj-27">
          <mxGeometry relative="1" as="geometry">
            <mxPoint x="1344.8823529411766" y="-10890" as="targetPoint" />
          </mxGeometry>
        </mxCell>
        <mxCell id="IJF4PRLWW7D9-W-VvZhj-27" value="&lt;font style=&quot;font-size: 30px;&quot;&gt;0.&amp;nbsp;&lt;/font&gt;&lt;span style=&quot;font-size: 30px;&quot;&gt;Use the &lt;font color=&quot;#394700&quot;&gt;.NET SDK&lt;/font&gt; image&amp;nbsp;&lt;/span&gt;&lt;div&gt;&lt;span style=&quot;background-color: initial; font-size: 30px;&quot;&gt;&lt;font style=&quot;line-height: 240%;&quot; color=&quot;#331a00&quot;&gt;&lt;b&gt;FROM&lt;/b&gt; mcr.microsoft.com/dotnet/sdk:7.0 &lt;b&gt;AS&lt;/b&gt; build&lt;/font&gt;&lt;/span&gt;&lt;/div&gt;" style="shape=process;whiteSpace=wrap;html=1;backgroundOutline=1;sketch=1;curveFitting=1;jiggle=2;" vertex="1" parent="1">
          <mxGeometry x="755" y="-11220" width="1180" height="180" as="geometry" />
        </mxCell>
        <mxCell id="IJF4PRLWW7D9-W-VvZhj-28" style="edgeStyle=orthogonalEdgeStyle;rounded=0;orthogonalLoop=1;jettySize=auto;html=1;exitX=1;exitY=0.5;exitDx=0;exitDy=0;strokeWidth=5;sketch=1;curveFitting=1;jiggle=2;" edge="1" parent="1" source="IJF4PRLWW7D9-W-VvZhj-29" target="IJF4PRLWW7D9-W-VvZhj-31">
          <mxGeometry relative="1" as="geometry" />
        </mxCell>
        <mxCell id="IJF4PRLWW7D9-W-VvZhj-29" value="&lt;font style=&quot;font-size: 30px;&quot;&gt;1.&amp;nbsp;&lt;/font&gt;&lt;span style=&quot;font-size: 30px;&quot;&gt;Set working directory&amp;nbsp;&lt;/span&gt;&lt;div&gt;&lt;span style=&quot;background-color: initial; font-size: 30px;&quot;&gt;&lt;font style=&quot;line-height: 240%;&quot; color=&quot;#331a00&quot;&gt;&lt;b&gt;WORKDIR&lt;/b&gt; /app&lt;/font&gt;&lt;/span&gt;&lt;/div&gt;" style="shape=process;whiteSpace=wrap;html=1;backgroundOutline=1;sketch=1;curveFitting=1;jiggle=2;" vertex="1" parent="1">
          <mxGeometry x="752.5" y="-10880" width="1180" height="180" as="geometry" />
        </mxCell>
        <mxCell id="IJF4PRLWW7D9-W-VvZhj-30" style="edgeStyle=orthogonalEdgeStyle;rounded=0;orthogonalLoop=1;jettySize=auto;html=1;exitX=0.5;exitY=0;exitDx=0;exitDy=0;strokeWidth=5;sketch=1;curveFitting=1;jiggle=2;" edge="1" parent="1" source="IJF4PRLWW7D9-W-VvZhj-31">
          <mxGeometry relative="1" as="geometry">
            <mxPoint x="2670.2857142857147" y="-11030" as="targetPoint" />
          </mxGeometry>
        </mxCell>
        <mxCell id="IJF4PRLWW7D9-W-VvZhj-31" value="&lt;font style=&quot;font-size: 30px;&quot;&gt;2.&amp;nbsp;&lt;/font&gt;&lt;span style=&quot;font-size: 30px;&quot;&gt;Copy the project file(s) and restore dependencies&amp;nbsp;&lt;/span&gt;&lt;div&gt;&lt;span style=&quot;font-size: 30px;&quot;&gt;&lt;font color=&quot;#331a00&quot;&gt;&lt;span style=&quot;background-color: initial;&quot;&gt;&lt;b&gt;COPY&lt;/b&gt; *.csproj ./&lt;/span&gt;&lt;br&gt;&lt;span style=&quot;background-color: initial;&quot;&gt;&lt;b&gt;RUN&lt;/b&gt; dotnet restore&lt;/span&gt;&lt;/font&gt;&lt;/span&gt;&lt;/div&gt;" style="shape=process;whiteSpace=wrap;html=1;backgroundOutline=1;sketch=1;curveFitting=1;jiggle=2;" vertex="1" parent="1">
          <mxGeometry x="2080" y="-10880" width="1180" height="180" as="geometry" />
        </mxCell>
        <mxCell id="IJF4PRLWW7D9-W-VvZhj-32" value="&lt;font style=&quot;font-size: 30px;&quot;&gt;3.&amp;nbsp;&lt;/font&gt;&lt;span style=&quot;font-size: 30px;&quot;&gt;Copy the rest of the application and &lt;font color=&quot;#394700&quot;&gt;build it&lt;/font&gt;&amp;nbsp;&lt;/span&gt;&lt;div&gt;&lt;span style=&quot;font-size: 30px;&quot;&gt;&lt;font color=&quot;#331a00&quot;&gt;&lt;span style=&quot;background-color: initial;&quot;&gt;&lt;b&gt;COPY&lt;/b&gt; . ./&lt;/span&gt;&lt;/font&gt;&lt;/span&gt;&lt;/div&gt;&lt;div&gt;&lt;span style=&quot;font-size: 30px;&quot;&gt;&lt;span style=&quot;background-color: initial;&quot;&gt;&lt;font color=&quot;#331a00&quot;&gt;&lt;b&gt;RUN&lt;/b&gt; dotnet publish -c Release -o /app/publis&lt;/font&gt;h&lt;/span&gt;&lt;/span&gt;&lt;/div&gt;" style="shape=process;whiteSpace=wrap;html=1;backgroundOutline=1;sketch=1;curveFitting=1;jiggle=2;" vertex="1" parent="1">
          <mxGeometry x="2090" y="-11220" width="1180" height="180" as="geometry" />
        </mxCell>
        <mxCell id="IJF4PRLWW7D9-W-VvZhj-33" value="&lt;font style=&quot;font-size: 40px;&quot;&gt;&lt;b&gt;Stage 2: Runtime&lt;/b&gt;&lt;/font&gt;" style="shape=hexagon;perimeter=hexagonPerimeter2;whiteSpace=wrap;html=1;fixedSize=1;sketch=1;curveFitting=1;jiggle=2;fillColor=#d5e8d4;strokeColor=#82b366;" vertex="1" parent="1">
          <mxGeometry x="1467.5" y="-10460" width="1135" height="140" as="geometry" />
        </mxCell>
        <mxCell id="IJF4PRLWW7D9-W-VvZhj-34" style="edgeStyle=orthogonalEdgeStyle;rounded=0;orthogonalLoop=1;jettySize=auto;html=1;exitX=0.5;exitY=1;exitDx=0;exitDy=0;entryX=0.5;entryY=0;entryDx=0;entryDy=0;strokeWidth=5;sketch=1;curveFitting=1;jiggle=2;" edge="1" parent="1" source="IJF4PRLWW7D9-W-VvZhj-35" target="IJF4PRLWW7D9-W-VvZhj-37">
          <mxGeometry relative="1" as="geometry" />
        </mxCell>
        <mxCell id="IJF4PRLWW7D9-W-VvZhj-35" value="&lt;font style=&quot;font-size: 30px;&quot;&gt;0.&amp;nbsp;&lt;/font&gt;&lt;span style=&quot;font-size: 30px;&quot;&gt;Use the &lt;font color=&quot;#394700&quot;&gt;.NET runtime&lt;/font&gt; image&amp;nbsp;&lt;/span&gt;&lt;div&gt;&lt;span style=&quot;background-color: initial; font-size: 30px; line-height: 240%;&quot;&gt;&lt;font color=&quot;#331a00&quot;&gt;&lt;b&gt;FROM&lt;/b&gt; mcr.microsoft.com/dotnet/aspnet:7.0 AS runtime&lt;/font&gt;&lt;/span&gt;&lt;/div&gt;" style="shape=process;whiteSpace=wrap;html=1;backgroundOutline=1;sketch=1;curveFitting=1;jiggle=2;" vertex="1" parent="1">
          <mxGeometry x="770" y="-10170" width="1180" height="180" as="geometry" />
        </mxCell>
        <mxCell id="IJF4PRLWW7D9-W-VvZhj-36" style="edgeStyle=orthogonalEdgeStyle;rounded=0;orthogonalLoop=1;jettySize=auto;html=1;exitX=0.5;exitY=1;exitDx=0;exitDy=0;strokeWidth=5;sketch=1;curveFitting=1;jiggle=2;" edge="1" parent="1" source="IJF4PRLWW7D9-W-VvZhj-37">
          <mxGeometry relative="1" as="geometry">
            <mxPoint x="1359.7692307692305" y="-9540" as="targetPoint" />
          </mxGeometry>
        </mxCell>
        <mxCell id="IJF4PRLWW7D9-W-VvZhj-37" value="&lt;font style=&quot;font-size: 30px;&quot;&gt;1.&amp;nbsp;&lt;/font&gt;&lt;span style=&quot;font-size: 30px;&quot;&gt;Install netcat for waiting script&lt;/span&gt;&lt;div&gt;&lt;span style=&quot;background-color: initial; font-size: 30px;&quot;&gt;&lt;font color=&quot;#331a00&quot;&gt;&lt;b&gt;RUN&lt;/b&gt; apt-get update &amp;amp;&amp;amp; apt-get install -y netcat &amp;amp;&amp;amp; rm -rf /var/lib/apt/lists/*&lt;/font&gt;&lt;/span&gt;&lt;/div&gt;" style="shape=process;whiteSpace=wrap;html=1;backgroundOutline=1;sketch=1;curveFitting=1;jiggle=2;" vertex="1" parent="1">
          <mxGeometry x="770" y="-9860" width="1180" height="180" as="geometry" />
        </mxCell>
        <mxCell id="IJF4PRLWW7D9-W-VvZhj-38" style="edgeStyle=orthogonalEdgeStyle;rounded=0;orthogonalLoop=1;jettySize=auto;html=1;exitX=1;exitY=0.5;exitDx=0;exitDy=0;entryX=0;entryY=0.5;entryDx=0;entryDy=0;sketch=1;curveFitting=1;jiggle=2;strokeWidth=5;" edge="1" parent="1" source="IJF4PRLWW7D9-W-VvZhj-39" target="IJF4PRLWW7D9-W-VvZhj-40">
          <mxGeometry relative="1" as="geometry" />
        </mxCell>
        <mxCell id="IJF4PRLWW7D9-W-VvZhj-39" value="&lt;font style=&quot;font-size: 30px;&quot;&gt;2.&amp;nbsp;&lt;/font&gt;&lt;span style=&quot;font-size: 30px;&quot;&gt;Copy the published output from the build stage&lt;/span&gt;&lt;div&gt;&lt;span style=&quot;background-color: initial;&quot;&gt;&lt;span style=&quot;font-size: 30px; line-height: 240%;&quot;&gt;&lt;font color=&quot;#331a00&quot;&gt;&lt;b&gt;COPY&lt;/b&gt; --from=build /app/publish .&lt;/font&gt;&lt;/span&gt;&lt;/span&gt;&lt;/div&gt;" style="shape=process;whiteSpace=wrap;html=1;backgroundOutline=1;sketch=1;curveFitting=1;jiggle=2;" vertex="1" parent="1">
          <mxGeometry x="765" y="-9530" width="1180" height="180" as="geometry" />
        </mxCell>
        <mxCell id="IJF4PRLWW7D9-W-VvZhj-40" value="&lt;font style=&quot;font-size: 30px;&quot;&gt;3.&amp;nbsp;&lt;/font&gt;&lt;span style=&quot;font-size: 30px;&quot;&gt;Copy the &lt;font color=&quot;#394700&quot;&gt;wait-for-postgres.sh&lt;/font&gt; script&lt;/span&gt;&lt;div&gt;&lt;span style=&quot;background-color: initial; font-size: 30px;&quot;&gt;&lt;font color=&quot;#331a00&quot;&gt;&lt;b&gt;COPY&lt;/b&gt; wait-for-postgres.sh /app/wait-for-postgres.sh&lt;/font&gt;&lt;/span&gt;&lt;/div&gt;&lt;div&gt;&lt;span style=&quot;font-size: 30px;&quot;&gt;&lt;font color=&quot;#331a00&quot;&gt;&lt;b&gt;RUN&lt;/b&gt; chmod +x /app/wait-for-postgres.sh&lt;/font&gt;&lt;/span&gt;&lt;/div&gt;" style="shape=process;whiteSpace=wrap;html=1;backgroundOutline=1;sketch=1;curveFitting=1;jiggle=2;" vertex="1" parent="1">
          <mxGeometry x="2113.75" y="-9530" width="1180" height="180" as="geometry" />
        </mxCell>
        <mxCell id="IJF4PRLWW7D9-W-VvZhj-41" style="edgeStyle=orthogonalEdgeStyle;rounded=0;orthogonalLoop=1;jettySize=auto;html=1;exitX=0.5;exitY=0;exitDx=0;exitDy=0;strokeWidth=5;sketch=1;curveFitting=1;jiggle=2;curved=0;" edge="1" parent="1" source="IJF4PRLWW7D9-W-VvZhj-42">
          <mxGeometry relative="1" as="geometry">
            <mxPoint x="2689" y="-9970" as="targetPoint" />
          </mxGeometry>
        </mxCell>
        <mxCell id="IJF4PRLWW7D9-W-VvZhj-42" value="&lt;font style=&quot;font-size: 30px;&quot;&gt;4.&amp;nbsp;&lt;/font&gt;&lt;span style=&quot;font-size: 30px;&quot;&gt;Expose the required port&lt;/span&gt;&lt;div&gt;&lt;span style=&quot;background-color: initial; font-size: 30px;&quot;&gt;&lt;font style=&quot;line-height: 240%;&quot; color=&quot;#331a00&quot;&gt;&lt;b&gt;EXPOSE&lt;/b&gt; 9101&lt;/font&gt;&lt;/span&gt;&lt;br&gt;&lt;/div&gt;" style="shape=process;whiteSpace=wrap;html=1;backgroundOutline=1;sketch=1;curveFitting=1;jiggle=2;" vertex="1" parent="1">
          <mxGeometry x="2098.75" y="-9860" width="1180" height="180" as="geometry" />
        </mxCell>
        <mxCell id="IJF4PRLWW7D9-W-VvZhj-43" value="&lt;font style=&quot;font-size: 30px;&quot;&gt;5.&amp;nbsp;Use &lt;font color=&quot;#394700&quot;&gt;wait-for-postgres.sh&lt;/font&gt; to &lt;font color=&quot;#394700&quot;&gt;start the server&lt;/font&gt; after PostgreSQL is ready&lt;/font&gt;&lt;div&gt;&lt;span style=&quot;background-color: initial; font-size: 30px;&quot;&gt;&lt;font color=&quot;#331a00&quot;&gt;&lt;b&gt;ENTRYPOINT&lt;/b&gt; [&quot;/app/wait-for-postgres.sh&quot;, &quot;postgres-service-prod&quot;, &quot;dotnet&quot;, &quot;api.dll&quot;]&lt;/font&gt;&lt;/span&gt;&lt;br&gt;&lt;/div&gt;" style="shape=process;whiteSpace=wrap;html=1;backgroundOutline=1;sketch=1;curveFitting=1;jiggle=2;" vertex="1" parent="1">
          <mxGeometry x="2107.5" y="-10160" width="1180" height="180" as="geometry" />
        </mxCell>
        <mxCell id="IJF4PRLWW7D9-W-VvZhj-44" style="edgeStyle=orthogonalEdgeStyle;rounded=0;orthogonalLoop=1;jettySize=auto;html=1;exitX=0.5;exitY=1;exitDx=0;exitDy=0;entryX=0.494;entryY=-0.012;entryDx=0;entryDy=0;entryPerimeter=0;strokeWidth=5;sketch=1;curveFitting=1;jiggle=2;" edge="1" parent="1" source="IJF4PRLWW7D9-W-VvZhj-7" target="IJF4PRLWW7D9-W-VvZhj-21">
          <mxGeometry relative="1" as="geometry" />
        </mxCell>
        <mxCell id="IJF4PRLWW7D9-W-VvZhj-45" style="edgeStyle=orthogonalEdgeStyle;rounded=0;orthogonalLoop=1;jettySize=auto;html=1;exitX=0.5;exitY=1;exitDx=0;exitDy=0;entryX=0.494;entryY=0.001;entryDx=0;entryDy=0;entryPerimeter=0;strokeWidth=5;sketch=1;curveFitting=1;jiggle=2;" edge="1" parent="1" source="IJF4PRLWW7D9-W-VvZhj-21" target="IJF4PRLWW7D9-W-VvZhj-18">
          <mxGeometry relative="1" as="geometry" />
        </mxCell>
        <mxCell id="IJF4PRLWW7D9-W-VvZhj-46" style="edgeStyle=orthogonalEdgeStyle;rounded=0;orthogonalLoop=1;jettySize=auto;html=1;exitX=0.5;exitY=1;exitDx=0;exitDy=0;strokeWidth=5;sketch=1;curveFitting=1;jiggle=2;" edge="1" parent="1" source="IJF4PRLWW7D9-W-VvZhj-11">
          <mxGeometry relative="1" as="geometry">
            <mxPoint x="1355" y="-12650" as="targetPoint" />
          </mxGeometry>
        </mxCell>
        <mxCell id="IJF4PRLWW7D9-W-VvZhj-47" style="edgeStyle=orthogonalEdgeStyle;rounded=0;orthogonalLoop=1;jettySize=auto;html=1;exitX=0.5;exitY=0;exitDx=0;exitDy=0;entryX=0.506;entryY=1.013;entryDx=0;entryDy=0;entryPerimeter=0;strokeWidth=5;sketch=1;curveFitting=1;jiggle=2;" edge="1" parent="1" source="IJF4PRLWW7D9-W-VvZhj-16" target="IJF4PRLWW7D9-W-VvZhj-24">
          <mxGeometry relative="1" as="geometry" />
        </mxCell>
        <mxCell id="IJF4PRLWW7D9-W-VvZhj-48" style="edgeStyle=orthogonalEdgeStyle;rounded=0;orthogonalLoop=1;jettySize=auto;html=1;exitX=0.5;exitY=0;exitDx=0;exitDy=0;strokeWidth=5;sketch=1;curveFitting=1;jiggle=2;" edge="1" parent="1" source="IJF4PRLWW7D9-W-VvZhj-40">
          <mxGeometry relative="1" as="geometry">
            <mxPoint x="2704" y="-9680" as="targetPoint" />
          </mxGeometry>
        </mxCell>
      </root>
    </mxGraphModel>
  </diagram>
</mxfile>
